<?xml version="1.0" encoding="UTF-8"?>
<svg version="1.1" viewBox="0 0 2048 1252" width="2560" height="1565" xmlns="http://www.w3.org/2000/svg">
<path transform="translate(498,614)" d="m0 0h28l43 2 38 4 26 4 34 7 30 8 35 12 24 10 24 11 22 12 20 12 24 16 19 14 14 11 17 14 11 10 8 7 13 12 7 7 8 7 54 54 7 8 8 8 8 7 16 16 8 7 11 10 11 9 18 14 21 14 16 9 16 8 20 8 19 6 29 6 22 3 13 1h34l22-2 27-5 24-7 22-8 23-11 19-11 15-10 14-10 11-9 13-11 13-12 20-20 7-8 13-15 8-10 9-12 1 4-10 36-12 36-8 21-12 28-14 29-13 24-15 24-12 17-13 17-9 11-9 10-7 8-24 24-8 7-17 14-18 13-20 13-21 12-16 8-19 9-23 9-33 11-36 9-26 5-35 5-37 3-22 1h-45l-36-2-30-3-39-6-36-8-34-10-30-11-23-10-25-12-23-13-19-12-19-13-19-14-16-13-13-11-14-12-32-30-90-90-8-7-12-11-11-9-16-13-27-18-18-10-19-9-19-7-23-6-26-5-32-3h-27l-24 2-27 5-25 7-21 8-29 14-17 10-19 13-13 10-13 11-20 18-17 17-7 8-13 15-12 15-6 8-1-4 10-36 16-47 12-29 12-26 14-27 15-25 8-12 12-17 14-18 13-15 12-13 18-18 8-7 13-11 20-15 18-12 15-9 18-10 27-13 28-11 27-9 35-9 31-6 36-5 37-3z" fill="#38BDF8"/>
<path transform="translate(996)" d="m0 0h56l34 2 44 5 38 7 32 8 28 9 25 9 29 13 26 13 28 17 24 16 19 14 16 13 11 9 10 9 8 7 10 9 16 15 92 92 8 7 14 13 11 9 16 13 22 15 15 9 19 10 23 9 20 6 29 6 25 3 16 1h19l25-2 24-4 24-6 25-9 24-11 18-10 19-12 17-13 10-8 14-12 17-16 8-8 7-8 11-12 9-11 12-15 4-4-2 11-10 35-13 38-14 34-14 30-14 26-14 23-11 16-14 19-9 11-12 14-14 15-13 13-8 7-14 12-20 15-24 16-21 12-17 9-27 12-27 10-29 9-34 8-35 6-35 4-28 2h-76l-38-3-31-4-34-6-36-9-26-8-29-11-29-13-29-15-23-14-22-15-14-10-14-11-11-9-13-11-20-18-12-11-11-11-8-7-28-28-7-8-36-36-8-7-10-10-8-7-15-13-15-12-18-13-20-12-21-11-23-9-21-6-23-5-33-4h-43l-31 4-25 6-24 8-21 9-25 13-17 11-17 12-11 9-13 11-12 11-25 25-7 8-11 13-11 14-5 7-1-4 10-36 12-36 12-31 12-27 15-30 16-27 18-27 13-17 9-11 12-14 9-9 7-8 10-9 13-12 14-11 13-10 21-14 15-9 22-12 26-12 23-9 30-10 36-9 26-5 27-4 27-3z" fill="#38BDF8"/>
<path transform="translate(0,1022)" d="m0 0" fill="#38BDF8"/>
<path transform="translate(2047,206)" d="m0 0" fill="#38BDF8"/>
</svg>
